# xmcd CD database file
#
# Track frame offsets:
#	150
#	4412
#	29863
#	42998
#	59438
#	77805
#	94833
#	125789
#	144931
#	157731
#	174042
#	207867
#	214285
#	248282
#	275383
#
# Disc length: 3976 seconds
#
# Revision: 1
# Processed by: cddbd v1.5.1PL2 Copyright (c) Steve Scherf et al.
# Submitted via: CDex 1.50beta9
#
DISCID=cc0f860f
DTITLE=Pat Metheny Group - Quartet
DYEAR=1996
DGENRE=Jazz
TTITLE0=Introduction
TTITLE1=When We Were Free
TTITLE2=Montevideo
TTITLE3=Take Me There
TTITLE4=Seven Days
TTITLE5=Oceania
TTITLE6=Dismantling Utopia
TTITLE7=Double blind
TTITLE8=Second Thought
TTITLE9=Mojave
TTITLE10=Badland
TTITLE11=Glacier
TTITLE12=Language Of Time
TTITLE13=Sometimes I See
TTITLE14=As I Am
EXTD=YEAR: 1996
EXTT0=
EXTT1=
EXTT2=
EXTT3=
EXTT4=
EXTT5=
EXTT6=
EXTT7=
EXTT8=
EXTT9=
EXTT10=
EXTT11=
EXTT12=
EXTT13=
EXTT14=
PLAYORDER=
